<svg xmlns="http://www.w3.org/2000/svg" width="600" height="420" viewBox="0 0 600 420"><rect width="100%" height="100%" fill="white"/><defs>
<linearGradient id="sky" x1="0" y1="0" x2="0" y2="1">
  <stop offset="0" stop-color="#051C2C"/><stop offset="0.45" stop-color="#173E8C"/>
  <stop offset="0.78" stop-color="#5B86E5"/><stop offset="1" stop-color="#FFE2B0"/></linearGradient>
<linearGradient id="sea" x1="0" y1="0" x2="0" y2="1">
  <stop offset="0" stop-color="#7FA3E8"/><stop offset="1" stop-color="#0B2B55"/></linearGradient>
<linearGradient id="screen" x1="0" y1="0" x2="0" y2="1">
  <stop offset="0" stop-color="#EAF1FF"/><stop offset="1" stop-color="#CFDDFF"/></linearGradient>
<radialGradient id="sunglow" cx="0.5" cy="0.5" r="0.5">
  <stop offset="0" stop-color="#FFF4D6"/><stop offset="0.5" stop-color="#FFD27A" stop-opacity="0.75"/>
  <stop offset="1" stop-color="#FFD27A" stop-opacity="0"/></radialGradient>
<linearGradient id="pier" x1="0" y1="0" x2="0" y2="1">
  <stop offset="0" stop-color="#C69468"/><stop offset="1" stop-color="#7A5233"/></linearGradient>
</defs><circle cx="300" cy="215" r="170" fill="#DCE8FF" stroke="#99C2FF" stroke-width="6"/><circle cx="300" cy="215" r="170" fill="none" stroke="#2251FF" stroke-width="2" stroke-dasharray="6 8"/><path d="M262 330 L262 285 Q228 268 230 225 Q232 160 300 155 Q356 152 366 205 L380 232 L366 238 L366 262 Q366 280 340 282 L330 282 L330 330 Z" fill="#051C2C"/><rect x="138" y="147.8" width="9.9" height="24.200000000000003" rx="2.2" fill="#2251FF"/><path d="M150.1 147.8 L157.8 130.2 Q163.3 122.5 164.4 134.6 L162.2 144.5 L178.7 144.5 Q184.2 145.6 182 153.3 L177.6 172 L150.1 172 Z" fill="#2251FF"/><rect x="418" y="147.8" width="9.9" height="24.200000000000003" rx="2.2" fill="#2251FF"/><path d="M430.1 147.8 L437.8 130.2 Q443.3 122.5 444.4 134.6 L442.2 144.5 L458.7 144.5 Q464.2 145.6 462 153.3 L457.6 172 L430.1 172 Z" fill="#2251FF"/><rect x="128" y="277.8" width="9.9" height="24.200000000000003" rx="2.2" fill="#2251FF"/><path d="M140.1 277.8 L147.8 260.2 Q153.3 252.5 154.4 264.6 L152.2 274.5 L168.7 274.5 Q174.2 275.6 172 283.3 L167.6 302 L140.1 302 Z" fill="#2251FF"/><rect x="423" y="282.8" width="9.9" height="24.200000000000003" rx="2.2" fill="#2251FF"/><path d="M435.1 282.8 L442.8 265.2 Q448.3 257.5 449.4 269.6 L447.2 279.5 L463.7 279.5 Q469.2 280.6 467 288.3 L462.6 307 L435.1 307 Z" fill="#2251FF"/><rect x="278" y="77.8" width="9.9" height="24.200000000000003" rx="2.2" fill="#2251FF"/><path d="M290.1 77.8 L297.8 60.2 Q303.3 52.5 304.4 64.6 L302.2 74.5 L318.7 74.5 Q324.2 75.6 322 83.3 L317.6 102 L290.1 102 Z" fill="#2251FF"/><rect x="278" y="357.8" width="9.9" height="24.200000000000003" rx="2.2" fill="#2251FF"/><path d="M290.1 357.8 L297.8 340.2 Q303.3 332.5 304.4 344.6 L302.2 354.5 L318.7 354.5 Q324.2 355.6 322 363.3 L317.6 382 L290.1 382 Z" fill="#2251FF"/><path d="M205 95 q12 -12 24 0" stroke="#99C2FF" stroke-width="4" fill="none"/><path d="M395 95 q12 -12 24 0" stroke="#99C2FF" stroke-width="4" fill="none"/><path d="M200 345 q12 -12 24 0" stroke="#99C2FF" stroke-width="4" fill="none"/><path d="M400 350 q12 -12 24 0" stroke="#99C2FF" stroke-width="4" fill="none"/><rect x="38" y="74" width="44" height="32" rx="6" fill="#C5CDD5"/><line x1="44" y1="104" x2="76" y2="76" stroke="#E5484D" stroke-width="4"/><rect x="518" y="324" width="44" height="32" rx="6" fill="#C5CDD5"/><line x1="524" y1="354" x2="556" y2="326" stroke="#E5484D" stroke-width="4"/></svg>